<?xml version="1.0" encoding="UTF-8"?><svg xmlns="http://www.w3.org/2000/svg" xmlns:xlink="http://www.w3.org/1999/xlink" viewBox="0 0 24 24" version="1.1"><path d="M2 14.77C2 9.434 6.98 4.117 11.656 3c0 0-2.07 1.645-2.07 2.77 0 2.25 1.379 1.382 1.379 1.382v9c0 .582.62.696 1.379.696.758 0 2.07-.93 2.07-.93V8.539c0-.797-.941-1.7-1.379-2.078 1.168 0 2.067.691 2.067.691s.89-1.73 4.828-2.765c-.598.761-2.047 2.808-2.047 3.5 0 .687-.02 7.433-.02 7.832 0 .398.469.433.758.433.29 0 1.883-.418 3.379-2.074 0 .504-2.492 4.262-5.516 6.23l-2.07-2.078-2.07 2.77s-4.235-.508-6.207-3.46c.535.077 1.379.14 1.379-.692V9.922c0-.543-.25-.797-.723-.797-.469 0-2.25 1.14-4.793 5.645z" id="surface1"/><metadata><rdf:RDF xmlns:rdf="http://www.w3.org/1999/02/22-rdf-syntax-ns#" xmlns:rdfs="http://www.w3.org/2000/01/rdf-schema#" xmlns:dc="http://purl.org/dc/elements/1.1/"><rdf:Description about="https://iconscout.com/legal#licenses" dc:title="unreal,engine" dc:description="unreal,engine" dc:publisher="Iconscout" dc:date="2018-06-22" dc:format="image/svg+xml" dc:language="en"><dc:creator><rdf:Bag><rdf:li>Icons8</rdf:li></rdf:Bag></dc:creator></rdf:Description></rdf:RDF></metadata></svg>